<svg xmlns="http://www.w3.org/2000/svg" width="25.094" height="23.188" viewBox="0 0 25.094 23.188">
  <metadata><?xpacket begin="﻿" id="W5M0MpCehiHzreSzNTczkc9d"?>
<x:xmpmeta xmlns:x="adobe:ns:meta/" x:xmptk="Adobe XMP Core 5.6-c140 79.160451, 2017/05/06-01:08:21        ">
   <rdf:RDF xmlns:rdf="http://www.w3.org/1999/02/22-rdf-syntax-ns#">
      <rdf:Description rdf:about=""/>
   </rdf:RDF>
</x:xmpmeta>
                                                                                                    
                                                                                                    
                                                                                                    
                                                                                                    
                                                                                                    
                                                                                                    
                                                                                                    
                                                                                                    
                                                                                                    
                                                                                                    
                                                                                                    
                                                                                                    
                                                                                                    
                                                                                                    
                                                                                                    
                                                                                                    
                                                                                                    
                                                                                                    
                                                                                                    
                                                                                                    
                           
<?xpacket end="w"?></metadata>
<defs>
    <style>
      .cls-1 {
        fill: #111;
        fill-rule: evenodd;
      }
    </style>
  </defs>
  <path id="calendar.svg" class="cls-1" d="M88.141,517.716H70.881a3.905,3.905,0,0,1-3.923-3.865V499.939a3.905,3.905,0,0,1,3.923-3.865h17.26a3.906,3.906,0,0,1,3.923,3.865v13.912A3.844,3.844,0,0,1,88.141,517.716Zm-17.26-20.1a2.369,2.369,0,0,0-2.354,2.319v13.912a2.369,2.369,0,0,0,2.354,2.319h17.26a2.369,2.369,0,0,0,2.354-2.319V499.939a2.369,2.369,0,0,0-2.354-2.319H70.881Zm3.923,1.546a0.717,0.717,0,0,1-.785-0.773V495.3a0.785,0.785,0,0,1,1.569,0v3.092A0.717,0.717,0,0,1,74.8,499.166Zm9.415,0a0.717,0.717,0,0,1-.785-0.773V495.3a0.785,0.785,0,0,1,1.569,0v3.092A0.717,0.717,0,0,1,84.218,499.166Zm6.276,4.637H68.527a0.773,0.773,0,1,1,0-1.546H90.495A0.773,0.773,0,1,1,90.495,503.8ZM72.45,513.851a1.413,1.413,0,0,1-1.079-.483,1.75,1.75,0,0,1-.49-1.063,1.373,1.373,0,0,1,.49-1.062,1.555,1.555,0,0,1,2.157,0,1.4,1.4,0,0,1,0,2.125A1.413,1.413,0,0,1,72.45,513.851Zm0-4.637a1.416,1.416,0,0,1-1.079-.483,1.4,1.4,0,0,1,0-2.126,1.555,1.555,0,0,1,2.157,0,1.4,1.4,0,0,1,0,2.126A1.416,1.416,0,0,1,72.45,509.214Zm4.707,4.637a1.413,1.413,0,0,1-1.079-.483,1.4,1.4,0,0,1,0-2.125,1.555,1.555,0,0,1,2.158,0,1.4,1.4,0,0,1,0,2.125A1.414,1.414,0,0,1,77.158,513.851Zm0-4.637a1.416,1.416,0,0,1-1.079-.483,1.4,1.4,0,0,1,0-2.126,1.555,1.555,0,0,1,2.158,0,1.4,1.4,0,0,1,0,2.126A1.417,1.417,0,0,1,77.158,509.214Zm4.707,4.637a1.413,1.413,0,0,1-1.079-.483,1.4,1.4,0,0,1,0-2.125,1.555,1.555,0,0,1,2.157,0,1.4,1.4,0,0,1,0,2.125A1.413,1.413,0,0,1,81.865,513.851Zm0-4.637a1.417,1.417,0,0,1-1.079-.483,1.4,1.4,0,0,1,0-2.126,1.555,1.555,0,0,1,2.157,0,1.751,1.751,0,0,1,.49,1.063,1.377,1.377,0,0,1-.49,1.063A1.417,1.417,0,0,1,81.865,509.214Zm4.707,4.637a1.414,1.414,0,0,1-1.079-.483A1.75,1.75,0,0,1,85,512.3a1.373,1.373,0,0,1,.49-1.062,1.555,1.555,0,0,1,2.158,0,1.4,1.4,0,0,1,0,2.125A1.414,1.414,0,0,1,86.572,513.851Zm0-4.637a1.417,1.417,0,0,1-1.079-.483,1.4,1.4,0,0,1,0-2.126,1.555,1.555,0,0,1,2.158,0,1.75,1.75,0,0,1,.49,1.063,1.377,1.377,0,0,1-.49,1.063A1.417,1.417,0,0,1,86.572,509.214Z" transform="translate(-66.969 -494.531)"/>
</svg>
