<svg xmlns="http://www.w3.org/2000/svg" width="24" height="25" viewBox="0 0 24 25">
  <metadata><?xpacket begin="﻿" id="W5M0MpCehiHzreSzNTczkc9d"?>
<x:xmpmeta xmlns:x="adobe:ns:meta/" x:xmptk="Adobe XMP Core 5.6-c140 79.160451, 2017/05/06-01:08:21        ">
   <rdf:RDF xmlns:rdf="http://www.w3.org/1999/02/22-rdf-syntax-ns#">
      <rdf:Description rdf:about=""/>
   </rdf:RDF>
</x:xmpmeta>
                                                                                                    
                                                                                                    
                                                                                                    
                                                                                                    
                                                                                                    
                                                                                                    
                                                                                                    
                                                                                                    
                                                                                                    
                                                                                                    
                                                                                                    
                                                                                                    
                                                                                                    
                                                                                                    
                                                                                                    
                                                                                                    
                                                                                                    
                                                                                                    
                                                                                                    
                                                                                                    
                           
<?xpacket end="w"?></metadata>
<defs>
    <style>
      .cls-1 {
        fill: #111;
        fill-rule: evenodd;
      }
    </style>
  </defs>
  <path id="coach.svg" class="cls-1" d="M83.639,650.81a6.963,6.963,0,0,0,3.183-5.867,6.823,6.823,0,1,0-13.645,0,6.963,6.963,0,0,0,3.183,5.867,12.266,12.266,0,0,0-8.368,11.335,0.826,0.826,0,0,0,.8.852,0.816,0.816,0,0,0,.837-0.814,10.371,10.371,0,0,1,20.741,0,0.826,0.826,0,0,0,.818.814h0.019a0.821,0.821,0,0,0,.8-0.853A12.266,12.266,0,0,0,83.639,650.81Zm-8.824-5.867A5.186,5.186,0,1,1,80,650.221,5.237,5.237,0,0,1,74.815,644.943Z" transform="translate(-68 -638)"/>
</svg>
