<svg xmlns="http://www.w3.org/2000/svg" width="20.281" height="25.125" viewBox="0 0 20.281 25.125">
  <metadata><?xpacket begin="﻿" id="W5M0MpCehiHzreSzNTczkc9d"?>
<x:xmpmeta xmlns:x="adobe:ns:meta/" x:xmptk="Adobe XMP Core 5.6-c140 79.160451, 2017/05/06-01:08:21        ">
   <rdf:RDF xmlns:rdf="http://www.w3.org/1999/02/22-rdf-syntax-ns#">
      <rdf:Description rdf:about=""/>
   </rdf:RDF>
</x:xmpmeta>
                                                                                                    
                                                                                                    
                                                                                                    
                                                                                                    
                                                                                                    
                                                                                                    
                                                                                                    
                                                                                                    
                                                                                                    
                                                                                                    
                                                                                                    
                                                                                                    
                                                                                                    
                                                                                                    
                                                                                                    
                                                                                                    
                                                                                                    
                                                                                                    
                                                                                                    
                                                                                                    
                           
<?xpacket end="w"?></metadata>
<defs>
    <style>
      .cls-1 {
        fill: #111;
        fill-rule: evenodd;
      }
    </style>
  </defs>
  <path id="homework.svg" class="cls-1" d="M82.158,564.779h3.121a3.919,3.919,0,0,1,3.9,3.911v15.645a3.918,3.918,0,0,1-3.9,3.911H72.793a3.918,3.918,0,0,1-3.9-3.911V568.69a3.919,3.919,0,0,1,3.9-3.911h3.121v1.565H72.793a2.376,2.376,0,0,0-2.341,2.346v15.645a2.377,2.377,0,0,0,2.341,2.347H85.279a2.377,2.377,0,0,0,2.341-2.347V568.69a2.376,2.376,0,0,0-2.341-2.346H82.158v-1.565Zm-1.073,4.694H76.89a1.855,1.855,0,0,1-1.853-1.858v-2.64a1.854,1.854,0,0,1,1.853-1.858h4.194a1.854,1.854,0,0,1,1.853,1.858v2.64A1.8,1.8,0,0,1,81.085,569.473Zm-4-4.694a0.312,0.312,0,0,0-.293.294v2.64a0.312,0.312,0,0,0,.293.293H81.28a0.311,0.311,0,0,0,.293-0.293v-2.64a0.312,0.312,0,0,0-.293-0.294H77.085Zm6.633,18.774H74.354a0.783,0.783,0,0,1,0-1.565h9.364A0.783,0.783,0,0,1,83.718,583.553Zm0-4.694H74.354a0.782,0.782,0,0,1,0-1.564h9.364A0.782,0.782,0,0,1,83.718,578.859Zm0-4.693H74.354a0.782,0.782,0,0,1,0-1.564h9.364a0.718,0.718,0,0,1,.78.782A0.77,0.77,0,0,1,83.718,574.166Z" transform="translate(-68.906 -563.125)"/>
</svg>
