<?xml version="1.0" standalone="no"?>
<!DOCTYPE svg PUBLIC "-//W3C//DTD SVG 20010904//EN"
 "http://www.w3.org/TR/2001/REC-SVG-20010904/DTD/svg10.dtd">
<svg version="1.0" xmlns="http://www.w3.org/2000/svg"
 width="800.000000pt" height="800.000000pt" viewBox="0 0 800.000000 800.000000"
 preserveAspectRatio="xMidYMid meet">
<metadata>
Created by potrace 1.11, written by Peter Selinger 2001-2013
</metadata>
<g transform="translate(0.000000,800.000000) scale(0.100000,-0.100000)"
fill="#000000" stroke="none">
<path d="M367 7029 c-48 -11 -167 -68 -167 -80 0 -5 -4 -9 -10 -9 -13 0 -90
-80 -113 -116 -32 -52 -56 -112 -67 -171 -8 -42 -10 -573 -8 -1883 3 -1729 4
-1827 21 -1870 24 -58 46 -97 77 -134 39 -48 104 -106 117 -106 7 0 13 -4 13
-8 0 -7 66 -41 95 -49 63 -17 131 -22 303 -23 l202 0 1 -337 c1 -363 1 -366
20 -390 31 -37 74 -32 124 14 11 10 33 26 48 36 16 10 36 25 45 32 9 8 76 58
147 110 72 53 132 101 133 106 2 5 9 9 16 9 7 0 21 8 32 17 10 10 107 83 214
163 107 80 197 148 198 153 2 4 10 7 17 7 7 0 15 3 17 8 2 4 21 21 43 37 l40
30 805 5 805 5 0 662 c0 585 -1 662 -15 665 -8 2 -308 3 -666 3 l-651 -1 1
461 1 460 657 1 c362 0 661 4 665 8 4 4 8 206 9 449 0 243 4 462 8 487 12 69
70 184 118 236 55 60 129 107 204 132 52 17 92 20 318 21 143 1 263 4 267 6 7
5 4 458 -4 485 -2 8 -8 28 -12 45 -29 106 -122 219 -223 273 -121 65 11 61
-1987 60 -1030 0 -1837 -4 -1858 -9z"/>
<path d="M4459 6163 c-5 -44 -3 -1302 2 -1313 6 -13 87 -15 651 -14 353 1 650
0 658 -2 13 -3 15 -61 14 -452 0 -247 -3 -453 -7 -458 -3 -6 -248 -10 -657 -9
-375 0 -654 -4 -657 -9 -4 -5 -7 -216 -8 -470 -2 -315 -6 -474 -14 -501 -7
-22 -13 -45 -14 -51 -2 -7 -7 -18 -13 -25 -5 -8 -16 -27 -24 -44 -53 -108
-190 -203 -335 -230 -5 -1 -125 -3 -265 -3 l-255 -2 1 -227 c1 -126 5 -244 9
-263 32 -165 172 -315 335 -360 25 -7 56 -14 70 -15 14 -2 496 -3 1071 -4
l1046 -1 74 -54 c41 -30 79 -58 84 -63 6 -4 28 -21 50 -38 22 -16 42 -33 43
-37 2 -4 8 -8 14 -8 6 0 32 -18 58 -40 26 -22 53 -40 59 -40 6 0 11 -4 11 -9
0 -5 15 -18 33 -29 17 -11 41 -27 52 -36 11 -9 45 -35 75 -57 30 -23 66 -50
80 -60 14 -11 50 -38 80 -60 198 -146 235 -174 249 -187 16 -16 56 -32 77 -32
8 0 26 11 39 25 l25 24 0 351 0 350 198 1 c108 1 208 2 222 4 43 5 158 45 174
60 8 8 19 15 24 15 27 0 138 132 169 200 39 88 38 19 38 1930 0 1009 -3 1849
-6 1865 -38 175 -183 323 -364 370 -48 13 -277 15 -1610 15 -855 0 -1555 -3
-1556 -7z"/>
</g>
</svg>
